<?xml version="1.0" standalone="no"?><!DOCTYPE svg PUBLIC "-//W3C//DTD SVG 1.1//EN" "http://www.w3.org/Graphics/SVG/1.1/DTD/svg11.dtd"><svg t="1578230911047" class="icon" viewBox="0 0 1024 1024" version="1.1" xmlns="http://www.w3.org/2000/svg" p-id="7549" xmlns:xlink="http://www.w3.org/1999/xlink" width="200" height="200"><defs><style type="text/css"></style></defs><path d="M539.511467 829.781333h-71.338667a17.749333 17.749333 0 0 0-17.885867 17.646934 17.749333 17.749333 0 0 0 17.851734 17.681066h71.338666a17.749333 17.749333 0 0 0 17.851734-17.681066 17.749333 17.749333 0 0 0-17.8176-17.646934z m35.669333-70.621866H432.469333a17.749333 17.749333 0 0 0-17.851733 17.681066 17.749333 17.749333 0 0 0 17.851733 17.6128h142.711467c9.898667 0 17.851733-7.850667 17.851733-17.6128a17.749333 17.749333 0 0 0-17.851733-17.681066z m-260.266667-358.741334c0-6.621867 5.358933-12.014933 11.9808-12.014933h364.3392c6.587733 0 11.946667 5.393067 11.946667 12.014933V552.96a12.014933 12.014933 0 0 1-11.946667 12.014933H326.894933a12.014933 12.014933 0 0 1-11.9808-12.014933v-152.576z m11.9808 199.850667h364.3392c26.077867 0 47.274667-21.1968 47.274667-47.3088v-152.576c0-26.043733-21.1968-47.274667-47.274667-47.274667H326.894933c-26.077867 0-47.274667 21.230933-47.274666 47.3088V552.96c0 26.112 21.1968 47.3088 47.274666 47.3088z m552.96 300.1344h-1.774933a87.381333 87.381333 0 0 1-15.837867 34.747733v0.580267h-0.443733c-16.145067 21.333333-52.4288 35.293867-81.442133 35.293867H227.328c-29.013333 0-54.613333-13.994667-70.9632-35.293867h-0.4096v-0.580267a86.971733 86.971733 0 0 1-16.042667-34.747733h-1.809066V212.3776a129.6384 129.6384 0 0 0 89.224533 34.816h652.5952v653.2096zM227.328 211.831467c-49.186133 0-89.224533-34.577067-89.224533-80.008534V115.370667c0-45.431467 40.0384-80.0768 89.224533-80.0768h677.956267V0H227.293867C158.4128 0 102.4 51.746133 102.4 115.370667v16.452266c0 4.061867 0.238933 8.055467 0.682667 11.9808v738.986667a123.8016 123.8016 0 0 0 124.2112 123.562667h553.0624c68.846933 0 134.826667-55.466667 134.826666-123.562667V211.797333H227.293867z m669.013333-70.621867H218.385067a17.749333 17.749333 0 0 0-17.851734 17.681067 17.749333 17.749333 0 0 0 17.851734 17.646933h677.922133a17.749333 17.749333 0 0 0 17.851733-17.646933 17.749333 17.749333 0 0 0-17.851733-17.681067zM218.385067 70.656a17.749333 17.749333 0 0 0-17.851734 17.646933 17.749333 17.749333 0 0 0 17.851734 17.681067h677.922133a17.749333 17.749333 0 0 0 17.851733-17.681067 17.749333 17.749333 0 0 0-17.851733-17.646933H218.385067z" p-id="7550"></path></svg>