<?xml version="1.0" standalone="no"?><!DOCTYPE svg PUBLIC "-//W3C//DTD SVG 1.1//EN" "http://www.w3.org/Graphics/SVG/1.1/DTD/svg11.dtd"><svg t="1578230793350" class="icon" viewBox="0 0 1024 1024" version="1.1" xmlns="http://www.w3.org/2000/svg" p-id="3395" xmlns:xlink="http://www.w3.org/1999/xlink" width="200" height="200"><defs><style type="text/css"></style></defs><path d="M226.255238 147.431619a25.746286 25.746286 0 0 1 25.624381 25.746286v680.228571a25.746286 25.746286 0 0 1-25.721905 25.721905h-49.493333a25.746286 25.746286 0 0 1-25.721905-25.721905v-680.228571a25.746286 25.746286 0 0 1 25.721905-25.746286H226.255238m0-42.886095H176.664381a68.754286 68.754286 0 0 0-68.632381 68.632381v680.228571a68.754286 68.754286 0 0 0 68.632381 68.632381H226.255238a68.754286 68.754286 0 0 0 68.632381-68.632381v-680.228571A68.754286 68.754286 0 0 0 226.255238 104.545524z" p-id="3396"></path><path d="M224.377905 234.008381h-45.836191a21.455238 21.455238 0 1 1 0-42.886095h45.836191a21.455238 21.455238 0 1 1 0 42.886095z" p-id="3397"></path><path d="M224.377905 314.977524h-45.836191a21.455238 21.455238 0 1 1 0-42.886095h45.836191a21.455238 21.455238 0 1 1 0 42.886095z" p-id="3398"></path><path d="M224.377905 492.422095h-45.836191a21.455238 21.455238 0 0 1 0-42.886095h45.836191a21.455238 21.455238 0 0 1 0 42.886095z" p-id="3399"></path><path d="M446.878476 234.008381h-45.83619a21.455238 21.455238 0 0 1 0-42.886095h45.83619a21.455238 21.455238 0 0 1 0 42.886095z" p-id="3400"></path><path d="M446.878476 314.977524h-45.83619a21.455238 21.455238 0 0 1 0-42.886095h45.83619a21.455238 21.455238 0 0 1 0 42.886095z" p-id="3401"></path><path d="M446.878476 492.422095h-45.83619a21.455238 21.455238 0 0 1 0-42.886095h45.83619a21.455238 21.455238 0 0 1 0 42.886095z" p-id="3402"></path><path d="M776.582095 234.008381h-45.83619a21.455238 21.455238 0 0 1 0-42.886095h45.83619a21.455238 21.455238 0 0 1 0 42.886095z" p-id="3403"></path><path d="M776.582095 314.977524h-45.83619a21.455238 21.455238 0 0 1 0-42.886095h45.83619a21.455238 21.455238 0 0 1 0 42.886095z" p-id="3404"></path><path d="M474.38019 820.272762v33.231238a25.746286 25.746286 0 0 1-25.746285 25.721905h-49.590857a25.746286 25.746286 0 0 1-25.721905-25.721905v-680.228571a25.746286 25.746286 0 0 1 25.721905-25.746286h49.590857a25.746286 25.746286 0 0 1 25.746285 25.746286v346.233904a257.389714 257.389714 0 0 1 42.886096-44.227047V173.177905a68.754286 68.754286 0 0 0-68.510476-68.632381h-49.590858a68.754286 68.754286 0 0 0-68.632381 68.632381v680.228571a68.754286 68.754286 0 0 0 68.632381 68.632381h49.590858a68.656762 68.656762 0 0 0 67.827809-58.172952 249.880381 249.880381 0 0 1-42.203429-43.593143z" p-id="3405"></path><path d="M703.122286 422.473143V173.177905a25.746286 25.746286 0 0 1 25.721904-25.746286h49.590858a25.746286 25.746286 0 0 1 25.721904 25.746286v284.672a259.974095 259.974095 0 0 1 42.886096 33.499428V173.177905a68.754286 68.754286 0 0 0-68.583619-68.632381h-49.590858a68.754286 68.754286 0 0 0-68.632381 68.632381v247.954285c4.291048-0.26819 8.582095-0.26819 12.873143-0.26819a220.623238 220.623238 0 0 1 30.012953 1.609143z" p-id="3406"></path><path d="M673.645714 463.481905a206.409143 206.409143 0 1 1-206.409143 206.409143 206.506667 206.506667 0 0 1 206.409143-206.409143m0-42.886095a249.295238 249.295238 0 1 0 249.295238 249.295238A249.173333 249.173333 0 0 0 673.645714 420.59581z" p-id="3407"></path><path d="M799.622095 683.544381h-211.748571a21.455238 21.455238 0 0 1 0-42.886095h211.772952a21.455238 21.455238 0 1 1 0 42.886095z" p-id="3408"></path><path d="M628.345905 764.513524a22.674286 22.674286 0 0 1-15.286857-6.168381l-80.944762-80.944762a21.528381 21.528381 0 0 1 0-30.281143l80.944762-80.944762a21.430857 21.430857 0 1 1 30.281142 30.281143l-65.682285 65.682286 65.682285 65.682285a21.528381 21.528381 0 0 1 0 30.281143 20.72381 20.72381 0 0 1-14.994285 6.412191z" p-id="3409"></path></svg>