<?xml version="1.0" standalone="no"?><!DOCTYPE svg PUBLIC "-//W3C//DTD SVG 1.1//EN" "http://www.w3.org/Graphics/SVG/1.1/DTD/svg11.dtd"><svg t="1611364722346" class="icon" viewBox="0 0 1024 1024" version="1.1" xmlns="http://www.w3.org/2000/svg" p-id="2571" xmlns:xlink="http://www.w3.org/1999/xlink" width="200" height="200"><defs><style type="text/css"></style></defs><path d="M160.6144 798.208c-11.3152 0-20.48-9.1648-20.48-20.48V204.3904c0-45.1584 36.7616-81.92 81.92-81.92h454.6048c45.1584 0 81.92 36.7616 81.92 81.92v428.1344c0 45.1584-36.7616 81.92-81.92 81.92h-384c-11.3152 0-20.48-9.1648-20.48-20.48s9.1648-20.48 20.48-20.48h384c22.5792 0 40.96-18.3808 40.96-40.96V204.3904c0-22.5792-18.3808-40.96-40.96-40.96H222.0544c-22.5792 0-40.96 18.3808-40.96 40.96V777.728c0 11.3152-9.1648 20.48-20.48 20.48z" fill="#888888" p-id="2572"></path><path d="M780.2368 900.5568H222.0544c-45.1584 0-81.92-36.7616-81.92-81.92v-63.2832c0-45.1584 36.7616-81.92 81.92-81.92h326.144c11.3152 0 20.48 9.1648 20.48 20.48s-9.1648 20.48-20.48 20.48h-326.144c-22.5792 0-40.96 18.3808-40.96 40.96v63.2832c0 22.5792 18.3808 40.96 40.96 40.96h558.1824c22.5792 0 40.96-18.3808 40.96-40.96V153.2928c0-11.3152 9.1648-20.48 20.48-20.48s20.48 9.1648 20.48 20.48V818.688c0 45.1584-36.7616 81.8688-81.92 81.8688z" fill="#888888" p-id="2573"></path><path d="M728.2688 813.6704H271.4112c-11.3152 0-20.48-9.1648-20.48-20.48s9.1648-20.48 20.48-20.48h456.8576c11.3152 0 20.48 9.1648 20.48 20.48s-9.1648 20.48-20.48 20.48z" fill="#888888" p-id="2574"></path></svg>