<?xml version="1.0" standalone="no"?><!DOCTYPE svg PUBLIC "-//W3C//DTD SVG 1.1//EN" "http://www.w3.org/Graphics/SVG/1.1/DTD/svg11.dtd"><svg t="1611189300753" class="icon" viewBox="0 0 1026 1024" version="1.1" xmlns="http://www.w3.org/2000/svg" p-id="2586" xmlns:xlink="http://www.w3.org/1999/xlink" width="200.390625" height="200"><defs><style type="text/css"></style></defs><path d="M982.001684 378.015687l0 169.616248 35.706592 35.712613-74.456066 77.478477-75.365198-75.191801 51.610976-46.928045L919.497988 404.79232c-218.999551 90.294221-289.203771 118.359292-337.767049 140.269964-48.568094 21.910672-83.544973 21.803503-131.719311 3.647363-48.17193-18.150119-277.483802-101.837181-391.345602-156.334499-75.982926-36.359241-80.874174-59.413853 1.304092-90.270138 107.245009-40.742338 284.510004-105.995103 378.473263-141.60416 55.621992-22.503113 85.028483-34.784215 136.083143-9.125031 91.162412 37.64527 299.467927 115.808907 403.042693 158.574214C1067.737002 349.302784 1007.120205 362.241352 982.001684 378.015687L982.001684 378.015687zM592.294927 612.206765c52.958417-21.856485 124.365581-57.988142 202.228181-91.34183l0 267.814495c0 0-100.70167 107.125798-277.724631 107.125798-190.640668 0-293.616973-107.125798-293.616973-107.125798L223.181504 538.704384c60.0954 24.479119 127.579451 45.544479 209.245954 73.502381C482.762037 630.111238 546.630032 636.302965 592.294927 612.206765L592.294927 612.206765zM592.294927 612.206765" p-id="2587"></path></svg>