<?xml version="1.0" standalone="no"?><!DOCTYPE svg PUBLIC "-//W3C//DTD SVG 1.1//EN" "http://www.w3.org/Graphics/SVG/1.1/DTD/svg11.dtd"><svg t="1610276651875" class="icon" viewBox="0 0 1024 1024" version="1.1" xmlns="http://www.w3.org/2000/svg" p-id="2389" xmlns:xlink="http://www.w3.org/1999/xlink" width="200" height="200"><defs><style type="text/css"></style></defs><path d="M404.837209 0H71.44186a71.44186 71.44186 0 0 0-71.44186 71.44186v333.395349a71.44186 71.44186 0 0 0 71.44186 71.441861h333.395349a71.44186 71.44186 0 0 0 71.441861-71.441861V71.44186a71.44186 71.44186 0 0 0-71.441861-71.44186z m0 386.500465a18.574884 18.574884 0 0 1-18.336744 18.336744H89.778605a18.336744 18.336744 0 0 1-18.336745-18.336744V89.778605A18.336744 18.336744 0 0 1 89.778605 71.44186h296.72186a18.574884 18.574884 0 0 1 18.336744 18.336745zM404.837209 547.72093H71.44186a71.44186 71.44186 0 0 0-71.44186 71.441861v333.395349a71.44186 71.44186 0 0 0 71.44186 71.44186h333.395349a71.44186 71.44186 0 0 0 71.441861-71.44186V619.162791a71.44186 71.44186 0 0 0-71.441861-71.441861z m0 386.500465a18.574884 18.574884 0 0 1-18.336744 18.336745H89.778605a18.336744 18.336744 0 0 1-18.336745-18.336745V637.499535a18.336744 18.336744 0 0 1 18.336745-18.336744h296.72186a18.574884 18.574884 0 0 1 18.336744 18.336744zM952.55814 547.72093H619.162791a71.44186 71.44186 0 0 0-71.441861 71.441861v333.395349a71.44186 71.44186 0 0 0 71.441861 71.44186h333.395349a71.44186 71.44186 0 0 0 71.44186-71.44186V619.162791a71.44186 71.44186 0 0 0-71.44186-71.441861z m0 386.500465a18.574884 18.574884 0 0 1-18.336745 18.336745H637.499535a18.336744 18.336744 0 0 1-18.336744-18.336745V637.499535a18.336744 18.336744 0 0 1 18.336744-18.336744h296.72186a18.574884 18.574884 0 0 1 18.336745 18.336744zM785.860465 0a238.139535 238.139535 0 1 0 238.139535 238.139535A238.139535 238.139535 0 0 0 785.860465 0z m0 404.837209a166.697674 166.697674 0 1 1 166.697675-166.697674 166.697674 166.697674 0 0 1-166.697675 166.697674z" p-id="2390"></path></svg>