<?xml version="1.0" standalone="no"?><!DOCTYPE svg PUBLIC "-//W3C//DTD SVG 1.1//EN" "http://www.w3.org/Graphics/SVG/1.1/DTD/svg11.dtd"><svg t="1610279014877" class="icon" viewBox="0 0 1024 1024" version="1.1" xmlns="http://www.w3.org/2000/svg" p-id="3140" xmlns:xlink="http://www.w3.org/1999/xlink" width="200" height="200"><defs><style type="text/css"></style></defs><path d="M523.488202 204.863127c0.974846-1.183742 1.97222-2.398203 2.990073-3.641336-7.598064 9.269229 26.623945-32.671677 35.096504-42.803112 64.409467-77.021025 115.752722-119.834377 182.748808-138.948322 119.570186-42.514344 230.645285-12.80407 259.741161 63.883133 35.202999 57.163658 1.085438 138.798818-78.550879 184.374916h64.350076c18.851801 0 34.133946 15.130593 34.133946 33.793978v202.767967c0 18.663386-15.282145 33.79193-34.133946 33.79193h-33.458107v384.533736c0 55.992205-45.846434 101.383983-102.399789 101.383983H171.341471c-56.553356 0-102.399789-45.391778-102.399789-101.383983v-384.531688H34.133946C15.282145 538.084329 0 522.953736 0 504.290351v-202.767967c0-18.663386 15.282145-33.793978 34.133946-33.793978h87.32654C41.820074 222.152308 7.70456 140.5151 42.90756 83.35349 72.003436 6.666288 183.078535-23.043987 302.650769 19.470357c66.994038 19.113945 118.33934 61.927296 182.748807 138.946274 8.472559 10.133483 42.69252 52.074389 35.094456 42.803112l2.992122 3.645432zM68.939634 484.015192v-0.72499h887.464156v0.72499h12.978149v-162.213553H54.613903v162.213553h14.327779z m832.8523 54.071185h-778.238397v384.531688c0 26.130378 21.393364 47.312799 47.785886 47.312798h682.664578c26.392522 0 47.787934-21.18242 47.787933-47.312798v-384.531688zM255.946225 245.225028c38.84024 2.480123 77.250401 4.075512 113.039127 4.370423 48.574364 0.401407 88.739657-1.830908 115.719954-6.266867-2.144252-2.590715-4.378615-5.304309-6.721523-8.163311 7.727088 9.428973-26.388426-32.384957-34.65004-42.264489-57.937801-69.279601-102.184749-106.174245-157.462204-122.003205C188.526204 36.333555 109.137695 58.312645 93.443904 104.003431l-3.084282 6.219763c-24.195022 36.183989 16.883677 108.384033 110.130973 131.016434 13.090789 0.905214 39.217071 2.949114 55.45563 3.9854z m535.079857 0c16.240607-1.038334 42.364841-3.080186 55.45563-3.9854 93.247296-22.630353 134.328043-94.832445 110.130973-131.016434l-3.084281-6.219763c-15.691744-45.690786-95.0823-67.669877-192.425588-33.105852-55.279502 15.828959-99.526451 52.723603-157.464251 122.003205-8.259567 9.879532-42.375081 51.691414-34.647993 42.264489a2060.861291 2060.861291 0 0 1-6.721522 8.163311c26.978248 4.435959 67.14559 6.668274 115.719953 6.266867 35.786678-0.294911 74.198887-1.8903 113.039127-4.370423z" fill="#3F3939" p-id="3141"></path></svg>