<?xml version="1.0" standalone="no"?><!DOCTYPE svg PUBLIC "-//W3C//DTD SVG 1.1//EN" "http://www.w3.org/Graphics/SVG/1.1/DTD/svg11.dtd"><svg t="1611019734425" class="icon" viewBox="0 0 1024 1024" version="1.1" xmlns="http://www.w3.org/2000/svg" p-id="3361" xmlns:xlink="http://www.w3.org/1999/xlink" width="200" height="200"><defs><style type="text/css"></style></defs><path d="M97.66 961.61c-17.6 0-32-14.4-32-32v-512c0-17.6 14.4-32 32-32s32 14.4 32 32v512c0 17.6-14.4 32-32 32zM929.68 833.65c-17.6 0-32-14.4-32-32V289.89c0-17.6 14.4-32 32-32s32 14.4 32 32v511.77c0 17.59-14.4 31.99-32 31.99z" fill="#333333" p-id="3362"></path><path d="M67.87 941.25c-6.53-16.34 1.5-35.06 17.84-41.59l217.38-86.84c16.34-6.53 35.06 1.5 41.59 17.84 6.53 16.34-1.5 35.06-17.84 41.59l-217.38 86.84c-16.35 6.53-35.06-1.5-41.59-17.84zM600.35 941.62c-6.53-16.34 1.5-35.06 17.84-41.59l300.05-119.87c16.34-6.53 35.06 1.5 41.59 17.84 6.53 16.34-1.5 35.06-17.84 41.59L641.94 959.47c-16.34 6.53-35.06-1.5-41.59-17.85z" fill="#333333" p-id="3363"></path><path d="M283.25 834.61c4.65-16.98 22.34-27.06 39.31-22.42l316.37 86.58c16.98 4.65 27.06 22.34 22.42 39.31-4.65 16.98-22.34 27.06-39.31 22.42l-316.37-86.58c-16.98-4.64-27.06-22.33-22.42-39.31zM67.87 429.98c-6.53-16.34 1.5-35.06 17.84-41.59L220 334.74c16.34-6.53 35.06 1.5 41.59 17.84 6.53 16.34-1.5 35.06-17.84 41.59l-134.29 53.65c-16.35 6.53-35.06-1.5-41.59-17.84zM790.76 345.22c-6.53-16.34 1.5-35.06 17.84-41.59l108.93-43.52c16.34-6.53 35.06 1.5 41.59 17.84 6.53 16.34-1.5 35.06-17.84 41.59l-108.93 43.52c-16.34 6.54-35.06-1.49-41.59-17.84zM527.22 65.84c-123.71 0-224 100.29-224 224s224 352.27 224 352.27 224-228.56 224-352.27-100.28-224-224-224zM366.36 296.28c0-91.99 72.02-166.57 160.86-166.57s160.86 74.58 160.86 166.57-160.86 261.95-160.86 261.95-160.86-169.96-160.86-261.95z" fill="#333333" p-id="3364"></path><path d="M527.22 192.54c-53.02 0-96 42.98-96 96s42.98 96 96 96 96-42.98 96-96-42.98-96-96-96z m0 144c-26.51 0-48-21.49-48-48s21.49-48 48-48 48 21.49 48 48-21.49 48-48 48z" fill="#333333" p-id="3365"></path></svg>