<?xml version="1.0" standalone="no"?><!DOCTYPE svg PUBLIC "-//W3C//DTD SVG 1.1//EN" "http://www.w3.org/Graphics/SVG/1.1/DTD/svg11.dtd"><svg t="1611189511654" class="icon" viewBox="0 0 1024 1024" version="1.1" xmlns="http://www.w3.org/2000/svg" p-id="4866" xmlns:xlink="http://www.w3.org/1999/xlink" width="200" height="200"><defs><style type="text/css"></style></defs><path d="M899.104 94.584V185.84h34.16v746.512h-674.08v-32.592H167.92V1024h856.8V94.584h-125.616zM868.08 0H0v868.08h868.08V0zM776.816 776.688h-685.36V91.392h685.36v685.296z" p-id="4867"></path><path d="M659.352 181.48H512.4v91.384h146.952V181.48zM475.296 181.48H197.44v91.384h277.84V181.48zM475.296 387.2H335.84v91.392h139.456V387.2zM659.352 387.2H511.168v91.392H659.36V387.2zM299.384 387.2H197.448v91.392h101.936V387.2zM659.352 592.992H450.728v91.392H659.36V592.992zM405.576 592.992H197.448v91.392h208.128V592.992z" p-id="4868"></path></svg>