<?xml version="1.0" standalone="no"?><!DOCTYPE svg PUBLIC "-//W3C//DTD SVG 1.1//EN" "http://www.w3.org/Graphics/SVG/1.1/DTD/svg11.dtd"><svg t="1611229854621" class="icon" viewBox="0 0 1024 1024" version="1.1" xmlns="http://www.w3.org/2000/svg" p-id="6325" xmlns:xlink="http://www.w3.org/1999/xlink" width="200" height="200"><defs><style type="text/css"></style></defs><path d="M249.018182 549.236364L477.090909 1000.727273h-302.545454c-34.909091-2.327273-62.836364-13.963636-86.109091-37.236364s-34.909091-51.2-37.236364-86.109091v-204.8c2.327273-34.909091 13.963636-62.836364 37.236364-86.109091s51.2-34.909091 86.109091-37.236363h74.472727z m97.745454-458.472728c41.890909-44.218182 97.745455-65.163636 162.909091-67.490909 65.163636 2.327273 118.690909 25.6 162.909091 67.490909 41.890909 44.218182 65.163636 97.745455 67.490909 160.581819 0 41.890909-11.636364 79.127273-30.254545 114.036363-20.945455 34.909091-48.872727 62.836364-83.781818 83.781818-37.236364 20.945455-74.472727 30.254545-114.036364 30.254546-39.563636 0-76.8-9.309091-114.036364-30.254546-37.236364-20.945455-65.163636-48.872727-83.781818-83.781818-20.945455-34.909091-30.254545-72.145455-30.254545-114.036363-2.327273-62.836364 20.945455-116.363636 62.836363-160.581819z m267.636364 588.8l-104.727273 221.090909-104.727272-221.090909 104.727272-93.090909 104.727273 93.090909z m316.509091-93.090909c23.272727 23.272727 37.236364 51.2 41.890909 86.109091v204.8c0 34.909091-11.636364 62.836364-37.236364 86.109091-23.272727 23.272727-53.527273 34.909091-88.436363 37.236364h-302.545455L768 549.236364h74.472727c34.909091 0 65.163636 13.963636 88.436364 37.236363z" p-id="6326"></path></svg>