<?xml version="1.0" standalone="no"?><!DOCTYPE svg PUBLIC "-//W3C//DTD SVG 1.1//EN" "http://www.w3.org/Graphics/SVG/1.1/DTD/svg11.dtd"><svg t="1610847672886" class="icon" viewBox="0 0 1024 1024" version="1.1" xmlns="http://www.w3.org/2000/svg" p-id="2527" xmlns:xlink="http://www.w3.org/1999/xlink" width="200" height="200"><defs><style type="text/css"></style></defs><path d="M928 736l-128-71.112V720a112 112 0 0 1-112 112H176A112 112 0 0 1 64 720V304a112 112 0 0 1 112-112h512a112 112 0 0 1 112 112v55.104L928 288a32 32 0 0 1 32 32v384a32 32 0 0 1-32 32zM589.016 478.056L393.936 354.976a48 48 0 0 0-67.88 0v314.04a48 48 0 0 0 67.88 0l195.08-123.08a48 48 0 0 0 0-67.88z" fill="" p-id="2528"></path></svg>