<?xml version="1.0" standalone="no"?><!DOCTYPE svg PUBLIC "-//W3C//DTD SVG 1.1//EN" "http://www.w3.org/Graphics/SVG/1.1/DTD/svg11.dtd"><svg t="1578231917324" class="icon" viewBox="0 0 1278 1024" version="1.1" xmlns="http://www.w3.org/2000/svg" p-id="13626" xmlns:xlink="http://www.w3.org/1999/xlink" width="249.609375" height="200"><defs><style type="text/css"></style></defs><path d="M1184.779676 549.908974a165.021781 165.021781 0 0 1-8.223282-17.526253c1.307901 0.958871 2.592788 1.940756 3.917949 2.857437a132.70973 132.70973 0 0 0 4.305333 14.668816z m-15.403312 111.685514c-0.56957-0.630937-1.162152-1.261875-1.752817-1.917743-1.348173-4.059862-2.815247-8.077533-4.242047-12.093287 1.833362 4.750249 3.835486 9.442966 5.994864 14.01103z m-122.459393-100.608631c-8.629843-6.324716-17.299959-12.565052-26.131166-18.646214 1.22352-1.712544 2.425945-3.388652 3.609193-5.101197 8.833124-12.616831 17.50324-25.398588 27.354685-37.167776 0.818876-0.918599 1.572549-1.898566 2.347317-2.867025a89.75037 89.75037 0 0 1 4.836548 5.622822c1.344338 5.546113 2.54868 11.115238 3.854663 16.716965 3.037705 13.452967 6.180886 26.87525 9.197496 40.339723 1.409541 6.386084 2.774974 12.72806 4.102052 19.071954 0.249307 1.204343 0.45067 2.450875 0.632855 3.777953-9.933908-7.245233-19.867817-14.48663-29.801726-21.747205zM970.868874 50.348443c0.103558-0.093969 0.222458-0.155337 0.306839-0.224376 1.263793-0.818876 2.60813-1.591727 3.916031-2.330058-1.386528 0.870655-2.796069 1.695285-4.22287 2.554434z m-19.664536 427.547366h0.019177c-0.019177-0.061368-0.019177-0.134242-0.040272-0.193692 0.019177 0.061368 0.040273 0.132324 0.040272 0.172597v0.021095s0 0.030684 0.021096 0.040272v0.122736c-0.019177 0.16109-0.143831-0.122736-0.040273-0.163008z m327.270505 103.755646c-0.038355-0.471765-0.10164-0.878326-0.139995-1.3079-0.512037-3.731928-0.958871-7.444678-1.409541-11.157429-0.916681-7.101402-1.795007-14.258419-2.815247-21.421188-3.139345-22.45677-7.343038-44.938471-15.993976-65.95118-4.99572-12.169997-11.830556-22.644709-20.644503-32.375337-9.180235-10.079657-19.336602-19.286741-27.272222-30.240888-8.934764-12.365607-13.343655-26.541562-17.113938-41.313937-3.386734-13.165305-7.467691-25.945144-12.446152-38.602248-2.408685-6.223076-5.016816-12.588065-7.935621-18.889768 7.038117 7.657548 13.525841 15.704397 18.788128 24.733131 13.853775 23.776177 23.948774 49.878576 36.352735 74.581023 0.040273 0.130407 0.082463 0.264649 0.205199 0.441081 0.385466 0.801617 1.183247 1.231191 1.917743 1.221603 1.344338-0.032602 2.610048-1.102702 2.650321-2.60046 0-0.197528-0.040273-0.398891-0.080546-0.613678-0.04219-0.172597-0.082463-0.306839-0.082463-0.406561-7.057294-27.245374-14.484712-54.531021-25.743781-80.416715-5.427213-12.463411-11.9974-24.407115-16.400538-37.200378-1.570631-4.610254-2.978255-9.281876-4.3667-13.972675 7.506046 10.99442 16.197257 21.1738 24.642997 31.404958 7.77453 9.467897 15.341944 19.135239 22.441428 29.130516 6.098423 8.568475 9.995276 18.778539 16.523273 27.285647 0.080545 0.151502 0.224376 0.295332 0.326016 0.396972 0.588747 0.776686 1.468991 1.131468 2.284032 1.102703 1.304065 0 2.671416-0.918599 2.692511-2.468136 0-0.316428-0.061368-0.600254-0.16109-0.928187-9.383516-27.845628-30.561152-48.908198-44.391914-73.928991-7.916443-14.268008-15.054282-28.929152-21.662824-43.818509-2.124859-4.744496-4.326428-9.437213-6.326634-14.177873-0.67121-1.624328-1.873635-3.988905-2.815247-6.405262-2.203487-33.997747-7.874253-68.839301-20.684775-100.612466-1.87747-23.296741-6.119518-46.326916-15.278659-67.757693-7.73234-18.122671-19.359615-34.423486-35.069765-46.522527-14.482795-11.199619-32.639985-16.747649-50.630331-18.371977a121.258887 121.258887 0 0 0-10.63005-0.477518c-30.210205 0-64.399726 11.230303-76.540956 40.176715-12.035755 6.894286-22.211299 16.435057-30.841142 27.379616a231.318154 231.318154 0 0 0-5.569126 3.528647c-23.419477 15.451255-40.39342 36.74779-47.368251 64.307674-2.815247 11.065377-4.263143 22.32061-4.263142 33.558584 0 10.505396 1.242697 21.003121 3.812473 31.312907 4.855725 19.808367 13.568031 38.333764 22.706076 56.366301 7.651794 15.127156 15.7696 30.148837 21.971581 45.880082-0.063286 0.061368-0.141913 0.1189-0.20328 0.214787 0-0.021095 0-0.021095-0.042191 0-15.320848 8.595324-32.904634 13.717615-45.206954 27.416053-5.668848 6.343894-10.279102 13.44146-14.482795 20.736555-3.327284 5.762818-7.302765 11.951374-9.953086 18.400743a175.895383 175.895383 0 0 1-4.999556 4.334099c-13.320643 11.086472-28.743131 19.164005-43.085931 29.059559-11.218796 7.753435-22.335952 16.515602-29.865011 28.231094-5.668848 8.886821-9.832268 20.155478-9.853363 31.151817 0.021095 3.102908 0.349029 6.180886 1.081607 9.149551 0.061368 0.172597 0.103558 0.358618 0.184103 0.517791a47.276199 47.276199 0 0 0-0.122735 3.409747c0 5.54803 0.795863 11.138251 2.144037 16.494507 3.344544 13.483651 9.339408 28.587794 19.154416 38.828541 0.448752 0.490942 1.081607 0.736413 1.672272 0.736414 0.080545 0 0.203281 0 0.264648-0.061368 1.610904 1.610904 3.283176 3.081813 5.078184 4.506696a342.343965 342.343965 0 0 0-0.56957 20.462317c0 14.872097 0.734496 29.763371 1.570632 44.430269 1.323243 24.744637 4.26506 49.10189 7.690149 73.583797 1.959933 14.135683 4.142325 28.394102 4.794357 42.593071-14.54608-9.834186-29.04997-19.746999-43.716868-29.354892-21.1738-13.89213-42.635261-27.254963-64.177268-40.473965-11.097978-6.813741-22.236229-13.564196-33.311195-20.376019-8.13123-5.020651-16.147396-10.490054-24.652585-14.956477-30.081716-15.809873-62.088846-31.272634-95.637841-38.249383-7.289341-1.530359-15.399476-2.89771-23.45975-2.897709-1.457485 0-2.934147 0.044108-4.364783 0.145748a3.797131 3.797131 0 0 0-2.099928-0.632855 3.720421 3.720421 0 0 0-1.296394 0.203281c-1.284888 0.364371-2.539092 0.857231-3.701244 1.365433-3.488374 0.757508-6.846342 1.898566-10.037467 3.61111-5.688026 2.99935-9.791995 7.588509-12.421221 12.935176a153.630388 153.630388 0 0 0-3.634123 3.323448 232.616466 232.616466 0 0 0-13.871035 14.137601 272.225529 272.225529 0 0 0-6.689087 7.569332c-2.176638 2.550598-4.182597 5.689943-6.731278 7.446596-6.102258 4.159584-10.181297 11.56399-14.477041 17.092842a1048.575818 1048.575818 0 0 1-13.677343 17.34215c-9.72871 12.01466-20.316569 22.886344-30.933194 34.147331-21.624469 22.94963-43.668925 45.492698-66.23117 67.542906-11.360709 11.119074-22.550739 22.543068-34.668957 32.743544-12.281226 10.321293-23.661112 21.580361-35.547284 32.229588-21.123939 18.931958-42.949771 37.108326-64.718071 55.303871-16.166573 7.651794-34.107058 12.035755-51.171135 16.952847-11.84398 3.384816-23.747411 6.915381-35.10812 11.832474-11.728916 5.099278-22.125 12.302321-32.824088 18.970314-9.933908 6.15979-20.207257 12.035755-31.70988 14.281431-3.428924 0.652033-6.827165 0.855313-10.252254 0.855314-6.435945 0-12.850795-0.77285-19.401805-0.772851a66.373083 66.373083 0 0 0-6.923052 0.366289c-6.376495 0.734496-16.73806 2.753879-18.676899 10.808399-0.153419 0.696141-0.224376 1.352009-0.224376 2.004042 0.224376 8.975037 13.564196 12.07411 19.55139 13.136539v0.019177c0.143831 0.023013 0.337523 0.023013 0.490942 0.023013 0.498613 0 0.96846-0.122736 1.376939-0.368206 11.842063 4.466423 22.767444 11.809461 35.219349 15.257563a54.066927 54.066927 0 0 0 14.442523 1.959933c9.96651 0 19.585909-2.773056 28.865866-7.548236 7.559743-3.919867 14.697582-8.096711 22.125001-11.587003 0.264649 0.080545 0.517791 0.080545 0.786274 0.080545 0.51012 0 1.070101-0.122736 1.570632-0.368207 2.560187-1.304065 4.966954-2.60813 7.435089-3.731927a69.178741 69.178741 0 0 1 11.627276-2.936065c0.703812-0.122736 1.388446-0.224376 2.080751-0.308756h0.703812c5.068595 0 10.06815 0.797781 15.015927 2.082668 3.193042 0.774768 6.516491 1.816103 9.861034 2.853602 4.917093 3.590015 12.394373 4.652444 18.329787 4.671622 0.947365 0 1.856375-0.057532 2.713607-0.080546a42.566222 42.566222 0 0 0 5.141468-0.571487c0.25506-0.019177 0.51012-0.061368 0.784357-0.10164 0.592583-0.1189 1.242697-0.243553 1.844869-0.40848 0.155337-0.019177 0.256978-0.038355 0.368207-0.080545 4.621761-1.081607 9.069006-2.937982 13.0675-5.914319 6.343894-4.736825 10.963736-11.669466 13.117362-19.215784 2.234171-7.918361 1.162152-16.078357 2.069244-23.747411 12.411632-6.04089 25.122433-11.4029 37.791043-16.893398 13.750217-5.914319 27.111132-12.442316 40.49506-19.050858 29.189965-14.383072 59.758788-25.866517 89.132857-40.103841 26.184862-12.691623 54.920323-27.174418 73.971181-50.145143 18.78621-22.727172 32.722448-48.959977 51.081001-71.867416 6.478136-8.077533 13.443378-16.17808 21.317631-22.989903 23.235374 27.047847 48.908198 51.773306 74.705676 76.251377 24.552863 23.258386 48.409585 47.084425 73.78516 69.441473a1836.104631 1836.104631 0 0 0-19.768094 6.244171c-44.656562 14.361977-89.963239 27.356603-132.527544 47.529341-17.215578 8.159996-34.250889 17.054488-50.060762 27.745905-13.410776 9.076677-27.671113 19.662618-36.126442 34.005418-3.572755 6.079245-5.642 12.706965-5.642 19.33852 0 5.791584 1.591727 11.567825 5.143387 16.910657 7.107155 10.566764 18.42951 17.05257 30.066374 21.300371 24.236435 8.871479 50.98895 10.954148 77.091349 10.954148 8.913669 0 17.777477-0.268484 26.44951-0.55231 34.475265-1.141057 68.75492-4.813535 103.007727-8.528203 14.442522-1.549536 28.842854-2.527585 43.329485-3.937126 30.760597-3.037705 61.440649-7.260575 91.798519-13.034899 43.143463-8.200269 86.678146-18.972231 128.354535-34.149249 15.422489-3.099073 30.415403-8.486013 44.67574-15.134827 21.563102-10.039384 41.881588-24.359171 54.203087-45.32969 9.565702-16.319992 14.057056-35.087025 14.057056-53.896248 0-0.895586 0-1.714462-0.044108-2.569776-0.446834-20.318487-4.203693-41.066547-12.605325-59.649476-8.138901-18.07281-19.114144-36.39109-34.39472-49.531465a737.81708 737.81708 0 0 1-16.218352-21.66666c-8.261637-11.379887-16.097534-23.112638-22.172944-35.758235-6.936476-14.421427-11.54673-29.985829-11.506457-45.615434 0-8.831206 1.468991-17.685425 4.77518-26.374719 4.077122-10.524573 10.175544-19.359615 17.215578-27.82645a1163.75546 1163.75546 0 0 1 9.71145 9.751723c20.866961 21.010792 41.409823 42.307327 62.625814 63.013198 16.89148 16.483001 34.049526 34.193357 53.691049 47.655912 8.323004 5.711039 17.687343 11.034693 28.071922 12.058768 1.060512 0.10164 2.142119 0.16109 3.221808 0.16109 3.570837 0 7.038117-0.652033 10.486218-1.959933a0.999144 0.999144 0 0 0 0.203281-0.061368c4.652444-1.365433 8.773674-3.791378 11.587003-8.380537 2.694429-4.510531 3.797131-9.71145 3.797131-14.854836 0-0.753673 0-1.467073-0.04219-2.163215-0.285744-4.771344-1.100784-9.462144-2.203487-14.072397 2.774974 2.893874 5.590221 5.770489 8.528203 8.56464 0.122736 0.082463 0.245471 0.226294 0.385466 0.349029 0.55231 0.51012 1.204343 0.755591 1.860211 0.755591 1.524606-0.023013 2.876614-1.227355 2.914969-2.83826 0-0.467929-0.141913-0.997226-0.469847-1.467073-0.080545-0.139995-0.163008-0.262731-0.264648-0.469847-9.525429-14.603613-16.135889-30.78361-21.116268-47.512082-2.282114-7.670972-4.178762-15.481939-6.079245-23.273728 14.607448 30.883332 33.071477 60.138501 64.790945 76.397126 0.122736 0.099723 0.306839 0.182186 0.513955 0.264648 0.406562 0.203281 0.8323 0.303003 1.242698 0.303003a2.978255 2.978255 0 0 0 2.955242-2.934146c0-0.7134-0.283826-1.426801-0.914764-2.000206-0.143831-0.143831-0.289579-0.266566-0.368206-0.368207-18.563752-17.054488-32.172056-39.267705-43.39277-61.707215-6.261431-12.526697-11.381804-25.275852-15.033187-38.76142-1.630082-6.119518-3.162358-12.300403-4.690799-18.479371 4.405056 7.504128 8.95586 14.931547 13.403105 22.399238 5.323654 8.952024 11.055788 19.90809 20.786416 25.333384 0.285744 0.164926 0.609842 0.306839 0.897504 0.448752 0.406562 0.224376 0.855313 0.326016 1.261875 0.326016 1.532277-0.01726 2.592788-1.344338 2.592788-2.732784 0-0.45067-0.10164-0.895586-0.306839-1.305983-9.544607-19.459338-19.256057-39.248527-24.027401-60.136583 6.894286 14.175956 15.664124 27.253045 25.866517 39.267705 0.67121 0.836136 1.344338 1.655012 2.078833 2.468135a122.754726 122.754726 0 0 0 4.73299 5.179823c0.040273 0.084381 0.082463 0.103558 0.082463 0.103559l0.040272 0.019177c13.219002 13.73104 28.804499 24.644915 44.062062 35.823438 0.408479 0.283826 0.880244 0.45067 1.327078 0.429575 1.183247 0 2.205404-0.916681 2.224582-2.101847 0-0.529297-0.266566-1.100784-0.734495-1.551454-15.627687-14.032125-33.455026-25.989252-47.001962-41.960215-0.406562-0.531215-0.857231-1.041334-1.284888-1.549537-9.281876-11.404817-15.729328-24.623819-19.84864-38.617589 7.057294 4.28232 14.565258 7.793707 22.560328 10.014453 15.301671 4.184515 31.172912 4.87682 46.390202 8.489848 0.203281 0.038355 0.326016 0.078627 0.531215 0.139996 0.203281 0.04219 0.406562 0.04219 0.652033 0.04219 1.633917 0 2.650321-1.430636 2.650321-2.836342 0-0.876409-0.446834-1.81802-1.384611-2.262937a2.512243 2.512243 0 0 0-0.510119-0.266566c-17.890624-9.078595-36.839842-16.584641-53.263393-28.029731-9.565702-6.66991-17.424612-14.576764-23.542213-23.682207-0.04219-1.67419-0.061368-3.367557-0.061367-5.018734 0-18.953054 2.794151-37.618446 4.100134-56.746014 0.184103-2.504572 0.306839-5.034075 0.406562-7.555907 0.816958 1.070101 1.71638 2.092258 2.611965 3.079895a139.57525 139.57525 0 0 0 18.318281 17.545431c7.366051 5.914319 15.077295 11.159346 21.586115 17.930896 14.482795 14.931547 25.153117 33.464614 32.373418 52.935459 1.405706 3.774118 2.753879 7.530977 3.893019 11.343449 1.307901 7.753435 2.448958 15.646865 3.511387 23.521118 0.04219 3.835486 0.061368 7.835898 0.571487 11.790283 0.490942 3.958221 1.795007 7.569331 2.489231 11.260987 0.038355 0.245471 0.080545 0.45067 0.122735 0.655868 0.283826 1.589809 1.714462 2.362659 2.976337 2.324304 1.549536 0 3.344544-1.001062 3.388652-2.918804 0-0.139995 0-0.262731-0.044108-0.364372" fill="#1afa29" p-id="13627"></path></svg>